<?xml version="1.0" encoding="UTF-8"?>
<svg width="711px" height="383px" viewBox="0 0 711 383" version="1.1" xmlns="http://www.w3.org/2000/svg" xmlns:xlink="http://www.w3.org/1999/xlink">
    <!-- Generator: Sketch 49.3 (51167) - http://www.bohemiancoding.com/sketch -->
    <title>Group 30</title>
    <desc>Created with Sketch.</desc>
    <defs>
        <polygon id="path-1" points="65.2316638 89.4016734 0.0354083541 89.4016734 0.0354083541 0.161091695 65.2316638 0.161091695 65.2316638 89.4016734"></polygon>
        <polygon id="path-3" points="1.59602706 0.0337364805 125.124645 0.0337364805 125.124645 131.38588 1.59602706 131.38588 1.59602706 0.0337364805"></polygon>
    </defs>
    <g id="Home" stroke="none" stroke-width="1" fill="none" fill-rule="evenodd">
        <g id="Style-Guide---Homepage" transform="translate(-180.000000, -1168.000000)">
            <g id="Group-30" transform="translate(180.000000, 1168.000000)">
                <path d="M0.445,0.445 L0.445,382.555 L710.555,382.555 L710.555,0.445 L0.445,0.445 Z" id="Rectangle-2-Copy-6" stroke="#CBD6E2" stroke-width="0.89"></path>
                <g id="--Marketing/Logos/HubSpot-Primary" transform="translate(111.000000, 121.000000)">
                    <g id="Marketing/Logos/HubSpot-Primary" transform="translate(0.000000, 1.048420)">
                        <polygon id="Fill-1" fill="#33475B" points="50.1606713 23.7390119 50.1606713 61.3197644 16.1503654 61.3197644 16.1503654 23.7390119 0.000498709213 23.7390119 0.000498709213 113.44094 16.1503654 113.44094 16.1503654 77.0865086 50.1606713 77.0865086 50.1606713 113.44094 66.3088757 113.44094 66.3088757 23.7390119"></polygon>
                        <path d="M117.985291,84.448146 C117.985291,91.9190896 111.989143,97.9984034 104.628195,97.9984034 C97.2639227,97.9984034 91.2711004,91.9190896 91.2711004,84.448146 L91.2711004,46.0273551 L75.9756888,46.0273551 L75.9756888,84.448146 C75.9756888,100.476348 88.83075,113.515498 104.628195,113.515498 C120.422316,113.515498 133.274053,100.476348 133.274053,84.448146 L133.274053,46.0273551 L117.985291,46.0273551 L117.985291,84.448146 Z" id="Fill-2" fill="#33475B"></path>
                        <path d="M231.467569,49.9836322 C231.467569,42.106164 236.605937,39.6096644 242.233039,39.6096644 C246.761319,39.6096644 252.755803,43.1064506 256.665684,47.3572472 L266.694726,35.3622415 C261.684361,28.4901204 251.530641,23.740024 243.210509,23.740024 C226.571907,23.740024 214.582938,33.613005 214.582938,49.9836322 C214.582938,80.3481515 251.164921,70.7231336 251.164921,87.7229461 C251.164921,92.9655952 246.149569,97.5925535 240.401114,97.5925535 C231.346217,97.5925535 228.407157,93.0937938 224.249585,88.3453842 L213.11507,100.089053 C220.213365,108.961747 229.020569,113.463881 239.541672,113.463881 C255.324156,113.463881 268.04789,103.466075 268.04789,87.8427107 C268.04789,54.1045433 231.467569,64.603336 231.467569,49.9836322" id="Fill-4" fill="#33475B"></path>
                        <path d="M457.777987,99.112382 C448.729739,99.112382 446.161387,95.1415982 446.161387,89.057224 L446.161387,62.1186442 L460.226649,62.1186442 L460.226649,48.4654906 L446.161387,48.4654906 L446.161387,30.4620177 L430.626595,37.5382445 L430.626595,92.4089433 C430.626595,106.438259 440.16524,113.516172 453.251369,113.516172 C455.209634,113.516172 457.902664,113.387974 459.372194,113.020246 L463.165709,98.8677925 C461.453474,98.987557 459.496871,99.112382 457.777987,99.112382" id="Fill-6" fill="#33475B"></path>
                        <path d="M176.184157,97.8479387 C166.57403,97.8479387 158.78253,89.9417945 158.78253,80.1902648 C158.78253,70.4387351 166.57403,62.5325909 176.184157,62.5325909 C185.794284,62.5325909 193.585784,70.4387351 193.585784,80.1902648 C193.585784,89.9417945 185.794284,97.8479387 176.184157,97.8479387 M176.280574,46.4773998 C168.693545,46.4773998 163.400577,48.7124416 158.285483,53.8049633 L158.285483,24.2754219 L142.943526,24.2754219 L142.943526,79.0027407 C142.943526,99.4858448 157.53742,113.51516 173.936641,113.51516 C192.166125,113.51516 208.139781,99.2361949 208.139781,79.9979668 C208.139781,61.0026415 193.409573,46.4773998 176.280574,46.4773998" id="Fill-8" fill="#33475B"></path>
                        <g id="Group-12" transform="translate(277.614795, 45.510850)">
                            <mask id="mask-2" fill="white">
                                <use xlink:href="#path-1"></use>
                            </mask>
                            <g id="Clip-11"></g>
                            <path d="M33.2777021,51.1436611 C23.6659132,51.1436611 15.874413,43.2375169 15.874413,33.4859872 C15.874413,23.7344575 23.6659132,15.8283133 33.2777021,15.8283133 C42.8861663,15.8283133 50.6776666,23.7344575 50.6776666,33.4859872 C50.6776666,43.2375169 42.8861663,51.1436611 33.2777021,51.1436611 M65.2316638,33.6782851 C65.2316638,14.4400571 49.2580077,0.161091695 31.0285236,0.161091695 C14.6293023,0.161091695 0.0354083541,14.1904071 0.0354083541,34.6735113 L0.0354083541,89.4025168 L15.3773661,89.4025168 L15.3773661,59.8712886 C20.4924603,64.9654972 25.7854274,67.200539 33.3724569,67.200539 C50.501456,67.200539 65.2316638,52.6736105 65.2316638,33.6782851" id="Fill-10" fill="#33475B" mask="url(#mask-2)"></path>
                        </g>
                        <g id="Group-15" transform="translate(295.900800, 1.653425)">
                            <mask id="mask-4" fill="white">
                                <use xlink:href="#path-3"></use>
                            </mask>
                            <g id="Clip-14"></g>
                            <path d="M91.3337715,94.6873365 C81.7652041,94.6873365 74.0086134,86.8166156 74.0086134,77.1089433 C74.0086134,67.3995842 81.7652041,59.5288633 91.3337715,59.5288633 C100.902339,59.5288633 108.65893,67.3995842 108.65893,77.1089433 C108.65893,86.8166156 100.902339,94.6873365 91.3337715,94.6873365 M96.5203473,43.264506 L96.5203473,27.6259605 C100.543268,25.6979206 103.360975,21.5685754 103.360975,16.7763084 L103.360975,16.415328 C103.360975,9.80129101 98.0281115,4.38995953 91.5099821,4.38995953 L91.1558985,4.38995953 C84.6377691,4.38995953 79.3049053,9.80129101 79.3049053,16.415328 L79.3049053,16.7763084 C79.3049053,21.5685754 82.1226123,25.6996075 86.1455333,27.6276473 L86.1455333,43.264506 C80.1560357,44.204067 74.6835332,46.7106875 70.1702149,50.3997717 L27.8547381,16.9989691 C28.1340153,15.9109676 28.3301743,14.7909165 28.3318366,13.6135133 C28.3384861,6.12401463 22.3639497,0.0430140127 14.9797286,0.0328930685 C7.59883228,0.0244589484 1.60434754,6.08859132 1.59603572,13.5797768 C1.5877239,21.0709623 7.56226027,27.1519629 14.9464813,27.1603971 C17.3519221,27.1637707 19.5794899,26.470486 21.5311053,25.3436876 L63.1550386,58.2013328 C59.6158656,63.6227852 57.5412352,70.1170577 57.5412352,77.1089433 C57.5412352,84.4280728 59.8203363,91.1989844 63.6703715,96.7671905 L51.0131316,109.612355 C50.0123885,109.30704 48.9750733,109.094501 47.8745883,109.094501 C41.8086219,109.094501 36.8896867,114.084126 36.8896867,120.239347 C36.8896867,126.396255 41.8086219,131.38588 47.8745883,131.38588 C53.9422171,131.38588 58.8594899,126.396255 58.8594899,120.239347 C58.8594899,119.126043 58.650032,118.071778 58.3491442,117.05631 L70.8700701,104.351151 C76.5536928,108.752075 83.6320389,111.397015 91.3337715,111.397015 C109.997133,111.397015 125.124645,96.0452298 125.124645,77.1089433 C125.124645,59.9657507 112.713435,45.8031762 96.5203473,43.264506" id="Fill-13" fill="#FF7A59" mask="url(#mask-4)"></path>
                        </g>
                    </g>
                </g>
            </g>
        </g>
    </g>
</svg>